<svg width="80" height="80" fill="none" xmlns="http://www.w3.org/2000/svg"><defs><clipPath id="a"><path fill="#fff" fill-opacity="0" d="M0 0h80v80H0z"/></clipPath></defs><path fill="none" d="M0 0h80v80H0z"/><g clip-path="url(#a)" fill="#D4C17F"><path d="M73.33 45.33c.74 0 1.33-.6 1.33-1.33v-5.34c0-.73-.59-1.33-1.33-1.33h-6.67V36c0-.74-.59-1.34-1.33-1.34-.74 0-1.33.6-1.33 1.34v1.33H26.66V36c0-.74-.6-1.34-1.33-1.34-.74 0-1.33.6-1.33 1.34v1.33h-6.67c-.74 0-1.33.6-1.33 1.33V44c0 .73.59 1.33 1.33 1.33h56Zm-54.67-2.67V40H72v2.66H18.66ZM48 29.33c-2.16 0-3.55 1.64-3.71 1.83-.46.56-.37 1.39.19 1.86.57.46 1.4.38 1.88-.17 0-.01.72-.85 1.63-.85.92 0 1.64.84 1.64.84a1.33 1.33 0 0 0 1.87.19c.57-.46.66-1.3.2-1.87-.16-.19-1.55-1.83-3.7-1.83Z"/><path d="M73.33 56c.74 0 1.33-.6 1.33-1.34v-5.33c0-.74-.59-1.33-1.33-1.33h-6.67v-1.34a1.33 1.33 0 1 0-2.66 0V48H26.66v-1.34a1.33 1.33 0 1 0-2.66 0V48h-6.67c-.74 0-1.33.59-1.33 1.33v5.33c0 .74.59 1.34 1.33 1.34h56Zm-54.67-2.67v-2.67H72v2.67H18.66ZM54.96 26.17a1.342 1.342 0 0 0 1.88.19c.57-.46.65-1.3.19-1.87-.15-.19-1.55-1.83-3.7-1.83-2.16 0-3.55 1.64-3.7 1.83-.46.57-.38 1.39.18 1.86.57.47 1.41.39 1.88-.17 0-.01.73-.85 1.64-.85.91 0 1.63.84 1.63.84ZM1.34 17.46c.06.68.64 1.2 1.32 1.2h8c.69 0 1.26-.52 1.33-1.2l1.33-13.33a1.3 1.3 0 0 0-.34-1.03 1.32 1.32 0 0 0-.98-.44H8V1.33C8 .59 7.4 0 6.66 0c-.73 0-1.33.59-1.33 1.33v1.33h-4A1.336 1.336 0 0 0 0 4.13l1.34 13.33Zm9.18-12.13L9.46 16H3.87L2.8 5.33h7.72Z"/><path d="M37.33 30.66c0 1.49.61 2.88 1.71 3.9.26.24.59.36.91.36.36 0 .72-.14.98-.43.5-.54.47-1.38-.07-1.88-.56-.52-.86-1.21-.86-1.95 0-1.1.7-2.1 1.75-2.49.43-.16.75-.53.84-.99.09-.45-.06-.92-.4-1.24-.56-.51-.86-1.21-.86-1.95 0-1.38 1.09-2.54 2.48-2.64.52-.03.96-.36 1.15-.83.19-.48.09-1.02-.25-1.4a2.65 2.65 0 0 1-.71-1.79c0-1.39 1.09-2.55 2.48-2.64.51-.04.96-.36 1.15-.84.19-.47.09-1.02-.26-1.39-.45-.5-.71-1.14-.71-1.8 0-1.19.81-2.24 1.98-2.56.36-.1.67-.35.84-.69.17-.34.19-.74.04-1.09-.12-.33-.19-.66-.19-.99A2.67 2.67 0 0 1 52 2.66a2.667 2.667 0 0 1 2.47 3.66c-.15.35-.13.75.04 1.09.17.34.48.59.85.69a2.67 2.67 0 0 1 1.97 2.56c0 .66-.25 1.3-.71 1.8-.35.37-.45.92-.26 1.39.19.48.64.8 1.15.84 1.39.09 2.49 1.25 2.49 2.64 0 .65-.26 1.29-.72 1.79-.34.38-.44.92-.25 1.4.19.47.63.8 1.15.83 1.39.1 2.48 1.26 2.48 2.64 0 .74-.3 1.44-.86 1.95-.34.32-.49.79-.4 1.24.09.46.41.83.85.99 1.04.39 1.75 1.39 1.75 2.49 0 .74.59 1.33 1.33 1.33.74 0 1.33-.59 1.33-1.33 0-1.62-.75-3.13-1.98-4.13.42-.77.65-1.63.65-2.54 0-2.08-1.23-3.91-3.02-4.78.23-.6.35-1.23.35-1.88 0-2.09-1.22-3.92-3.01-4.79.23-.59.35-1.23.35-1.88 0-1.94-1.07-3.7-2.72-4.63.03-.23.05-.47.05-.7a5.335 5.335 0 0 0-10.67 0c0 .23.02.47.05.7a5.323 5.323 0 0 0-2.37 6.51c-1.78.87-3.01 2.7-3.01 4.79 0 .65.12 1.28.35 1.88-1.79.87-3.02 2.7-3.02 4.79 0 .9.23 1.76.65 2.53-1.23 1-1.98 2.51-1.98 4.13Z"/><path d="M50.15 18.56c.68.28 1.46-.05 1.75-.72.02-.07.06-.14.1-.21.03.07.07.14.09.2a1.33 1.33 0 0 0 1.74.73c.68-.27 1.01-1.05.73-1.73-.14-.36-.96-2.17-2.56-2.17-1.61 0-2.43 1.81-2.57 2.17-.28.68.05 1.45.72 1.73ZM78.66 77.33H57.33c-.74 0-1.33.6-1.33 1.33 0 .74.59 1.33 1.33 1.33h21.33c.74 0 1.33-.59 1.33-1.33 0-.73-.59-1.33-1.33-1.33ZM78.66 58.66h-12v-1.33c0-.74-.59-1.33-1.33-1.33-.74 0-1.33.59-1.33 1.33v1.33H26.66v-1.33c0-.74-.6-1.33-1.33-1.33-.74 0-1.33.59-1.33 1.33v1.33H12c-.74 0-1.34.6-1.34 1.34v5.33c0 .73.6 1.33 1.34 1.33h4v6.67a1.33 1.33 0 1 0 2.66 0v-6.67H72v6.67a1.33 1.33 0 1 0 2.66 0v-6.67h4c.74 0 1.33-.6 1.33-1.33V60c.01-.74-.59-1.34-1.33-1.34ZM77.33 64h-64v-2.67h64V64Z"/><path d="M20 77.33H7.99V22.66a1.33 1.33 0 1 0-2.66 0v54.67h-4c-.74 0-1.33.6-1.33 1.33C0 79.4.59 80 1.33 80H20a1.336 1.336 0 0 0 0-2.67ZM52 77.33h-2.67c-.74 0-1.33.6-1.33 1.33 0 .74.59 1.33 1.33 1.33H52a1.33 1.33 0 1 0 0-2.66ZM41.33 77.33H28c-.74 0-1.34.6-1.34 1.33 0 .74.6 1.34 1.34 1.34h13.33c.74 0 1.33-.6 1.33-1.34 0-.73-.59-1.33-1.33-1.33Z"/></g></svg>