<svg width="80" height="80" fill="none" xmlns="http://www.w3.org/2000/svg"><defs><clipPath id="a"><path fill="#fff" fill-opacity="0" d="M0 0h80v80H0z"/></clipPath></defs><path fill="none" d="M0 0h80v80H0z"/><g clip-path="url(#a)" fill="#D4C17F"><path d="M20 68H1.33C.59 68 0 68.59 0 69.33c0 .74.59 1.33 1.33 1.33H20A1.33 1.33 0 1 0 20 68ZM16 65.33c8.82 0 16-7.18 16-16 0-4.42-1.77-8.53-4.96-11.59a1.35 1.35 0 0 0-1.89.05c-.51.53-.49 1.38.04 1.88 2.67 2.55 4.14 5.97 4.14 9.66 0 7.35-5.98 13.33-13.33 13.33-7.36 0-13.34-5.98-13.34-13.33 0-7.36 5.98-13.34 13.34-13.34a1.33 1.33 0 1 0 0-2.66c-8.83 0-16 7.17-16 16 0 8.82 7.17 16 16 16Z"/><path d="M22.66 27.99h.68l-7.7 18.71a2.656 2.656 0 0 0 .36 5.29c1.47 0 2.66-1.19 2.66-2.66 0-.61-.21-1.17-.56-1.62l7.53-18.27 8.43 12.25c.42.61 1.25.76 1.86.35.61-.42.76-1.25.34-1.86l-8.4-12.19h2.8a3.999 3.999 0 1 0 0-8h-8c-.74 0-1.33.6-1.33 1.34v5.33c0 .74.59 1.33 1.33 1.33ZM24 22.66h6.66c.74 0 1.34.6 1.34 1.33 0 .74-.6 1.34-1.34 1.34H24v-2.67ZM62.66 34.66c0 .74.6 1.33 1.34 1.33 7.35 0 13.33 5.98 13.33 13.34 0 7.35-5.98 13.33-13.33 13.33-7.36 0-13.34-5.98-13.34-13.33 0-4 1.77-7.75 4.86-10.3.57-.46.65-1.3.18-1.87-.47-.57-1.31-.65-1.88-.18-3.7 3.05-5.82 7.55-5.82 12.35 0 8.82 7.17 16 16 16 8.82 0 16-7.18 16-16 0-8.83-7.18-16-16-16-.74 0-1.34.59-1.34 1.33ZM41.33 68H28c-.74 0-1.34.59-1.34 1.33 0 .74.6 1.33 1.34 1.33h13.33c.74 0 1.33-.59 1.33-1.33 0-.74-.59-1.33-1.33-1.33Z"/><path d="M41.33 42.85v-4.19c.74 0 1.33-.6 1.33-1.33 0-.74-.59-1.34-1.33-1.34h-2.67c-.74 0-1.33.6-1.33 1.34 0 .73.59 1.33 1.33 1.33v4.19c-2.29.6-4 2.66-4 5.14 0 2.48 1.71 4.55 4 5.15v4.19c-.74 0-1.33.59-1.33 1.33 0 .74.59 1.33 1.33 1.33h2.67c.74 0 1.33-.59 1.33-1.33 0-.74-.59-1.33-1.33-1.33v-4.19c2.29-.6 4-2.67 4-5.15 0-2.48-1.71-4.54-4-5.14Zm-1.34 7.81c-1.46 0-2.66-1.2-2.66-2.67a2.665 2.665 0 1 1 2.66 2.67ZM61.94 47.65c-.38.46-.61 1.04-.61 1.68a2.665 2.665 0 0 0 5.33 0c0-1.32-.97-2.41-2.22-2.63l-6.02-16.04h9.52c1.59 0 2.52-1.28 2.7-2.41l1.33-6.66c.08-.39-.02-.8-.28-1.11-.25-.31-.63-.49-1.03-.49h-12c-.74 0-1.33.6-1.33 1.34 0 .73.59 1.33 1.33 1.33h10.38l-1.02 5.1c-.02.09-.08.22-.08.23H57.42l-4.18-11.13v-.01c-.01-.01 0-.02-.01-.02l-2.66-6.67a1.35 1.35 0 0 0-1.74-.74c-.68.27-1.01 1.05-.74 1.73l2.43 6.07L45.5 26c-.36.64-.14 1.45.5 1.82.21.12.44.17.66.17.46 0 .91-.24 1.16-.67l3.92-6.87 3.21 8.56-10.16 11.43c-.49.55-.44 1.39.11 1.88.25.23.57.34.89.34.36 0 .73-.15.99-.45l9.23-10.38 5.93 15.82ZM78.66 68H57.33c-.74 0-1.33.59-1.33 1.33 0 .74.59 1.33 1.33 1.33h21.33c.74 0 1.33-.59 1.33-1.33.01-.74-.59-1.33-1.33-1.33ZM52 68h-2.67c-.74 0-1.33.59-1.33 1.33 0 .74.59 1.33 1.33 1.33H52A1.33 1.33 0 1 0 52 68Z"/></g></svg>