<svg width="80" height="80" fill="none" xmlns="http://www.w3.org/2000/svg"><defs><clipPath id="a"><path fill="#fff" fill-opacity="0" d="M0 0h80v80H0z"/></clipPath></defs><path fill="none" d="M0 0h80v80H0z"/><g clip-path="url(#a)" fill="#D4C17F"><path d="M57.33 74.66H20c-.74 0-1.34.6-1.34 1.34v2.66c0 .74.6 1.34 1.34 1.34.73 0 1.33-.6 1.33-1.34v-1.33h36a1.336 1.336 0 0 0 0-2.67ZM29.33 33.33c0 .73.6 1.33 1.33 1.33H36c.73 0 1.33-.6 1.33-1.33v-8c0-.74-.6-1.33-1.33-1.33h-5.34c-.73 0-1.33.59-1.33 1.33v8ZM32 26.66h2.66V32H32v-5.34ZM17.33 16h-16C.59 16 0 16.59 0 17.33V44a1.33 1.33 0 1 0 2.66 0V18.66h14.67a1.33 1.33 0 1 0 0-2.66ZM64 65.33c0 .73.59 1.33 1.33 1.33h5.33c.74 0 1.33-.6 1.33-1.33v-8c0-.74-.59-1.33-1.33-1.33h-5.33c-.74 0-1.33.59-1.33 1.33v8Zm2.66-6.67h2.67V64h-2.67v-5.34ZM6.66 48C.07 48 0 65.16 0 65.33c0 3.22 2.29 5.91 5.33 6.53v6.8c0 .74.6 1.34 1.33 1.34.74 0 1.33-.6 1.33-1.34v-6.8c3.04-.62 5.34-3.31 5.34-6.53 0-.17-.08-17.33-6.67-17.33Zm0 21.33c-2.2 0-4-1.8-4-4 0-6.64 1.79-14.67 4-14.67 2.22 0 4 8.03 4 14.67 0 2.2-1.79 4-4 4ZM14.66 40H9.33C8.59 40 8 40.59 8 41.33V44a1.33 1.33 0 1 0 2.66 0v-1.34h2.67v6.67a1.33 1.33 0 1 0 2.66 0v-8C16 40.59 15.4 40 14.66 40ZM65.33 34.66h5.33c.74 0 1.33-.6 1.33-1.33v-8c0-.74-.59-1.33-1.33-1.33h-5.33c-.74 0-1.33.59-1.33 1.33v8c0 .73.59 1.33 1.33 1.33Zm1.33-8h2.67V32h-2.67v-5.34Z"/><path d="M14.66 24H9.33C8.59 24 8 24.59 8 25.33v8c0 .73.59 1.33 1.33 1.33h5.33c.74 0 1.33-.6 1.33-1.33v-8C16 24.59 15.4 24 14.66 24Zm-1.33 8h-2.67v-5.34h2.67V32ZM42.66 33.33c0 .73.6 1.33 1.34 1.33h5.33c.73 0 1.33-.6 1.33-1.33v-8c0-.74-.6-1.33-1.33-1.33H44c-.74 0-1.34.59-1.34 1.33v8Zm2.67-6.67H48V32h-2.67v-5.34ZM78.66 16h-16a1.33 1.33 0 1 0 0 2.66h14.67v53.58a3.92 3.92 0 0 0-2.02-.18 5.293 5.293 0 0 0-4.65-2.73c-1.98 0-3.73 1.07-4.65 2.73-.22-.05-.45-.06-.68-.06a3.999 3.999 0 1 0 0 8H76c2.2 0 4-1.8 4-4V17.33c0-.74-.6-1.33-1.34-1.33ZM76 77.33H65.33c-.74 0-1.33-.6-1.33-1.33 0-.74.59-1.34 1.33-1.34.25 0 .5.08.72.22.37.23.82.28 1.23.11.4-.16.7-.51.79-.93A2.643 2.643 0 0 1 70.66 72c1.24 0 2.31.84 2.59 2.06.1.42.4.77.8.93.4.17.86.12 1.22-.11.87-.56 2.06.12 2.06 1.12 0 .73-.6 1.33-1.33 1.33ZM44 18.66h5.33c.73 0 1.33-.6 1.33-1.33v-8c0-.74-.6-1.33-1.33-1.33H44c-.74 0-1.34.59-1.34 1.33v8c0 .73.6 1.33 1.34 1.33Zm1.33-8H48V16h-2.67v-5.34ZM42.66 49.33c0 .73.6 1.33 1.34 1.33h5.33c.73 0 1.33-.6 1.33-1.33v-8c0-.74-.6-1.33-1.33-1.33H44c-.74 0-1.34.59-1.34 1.33v8Zm2.67-6.67H48V48h-2.67v-5.34ZM30.66 18.66H36c.73 0 1.33-.6 1.33-1.33v-8c0-.74-.6-1.33-1.33-1.33h-5.34c-.73 0-1.33.59-1.33 1.33v8c0 .73.6 1.33 1.33 1.33Zm1.34-8h2.66V16H32v-5.34ZM39.05 64.38c-.24.26-.39.6-.39.95s.15.69.39.95c.25.24.6.38.95.38.34 0 .69-.14.94-.38.24-.26.39-.6.39-.95s-.15-.69-.39-.95c-.51-.49-1.38-.49-1.89 0ZM29.33 49.33c0 .73.6 1.33 1.33 1.33H36c.73 0 1.33-.6 1.33-1.33v-8c0-.74-.6-1.33-1.33-1.33h-5.34c-.73 0-1.33.59-1.33 1.33v8ZM32 42.66h2.66V48H32v-5.34Z"/><path d="M26.66 57.33c0 .73.6 1.33 1.34 1.33h4v12c0 .74.59 1.33 1.33 1.33.73 0 1.33-.59 1.33-1.33v-12h10.67v12c0 .74.6 1.33 1.33 1.33.74 0 1.33-.59 1.33-1.33v-12h4c.74 0 1.34-.6 1.34-1.33 0-.74-.6-1.33-1.34-1.33H28c-.74 0-1.34.59-1.34 1.33ZM64 49.33c0 .73.59 1.33 1.33 1.33h5.33c.74 0 1.33-.6 1.33-1.33v-8c0-.74-.59-1.33-1.33-1.33h-5.33c-.74 0-1.33.59-1.33 1.33v8Zm2.66-6.67h2.67V48h-2.67v-5.34Z"/><path d="M57.33 0H22.66c-.73 0-1.33.59-1.33 1.33v69.33c0 .74.6 1.33 1.33 1.33.74 0 1.34-.59 1.34-1.33v-68h32v68c0 .74.59 1.33 1.33 1.33.73 0 1.33-.59 1.33-1.33V1.33c0-.74-.6-1.33-1.33-1.33Z"/></g></svg>