<svg width="80" height="80" fill="none" xmlns="http://www.w3.org/2000/svg"><defs><clipPath id="a"><path fill="#fff" fill-opacity="0" d="M0 0h80v80H0z"/></clipPath></defs><path fill="none" d="M0 0h80v80H0z"/><g clip-path="url(#a)" fill="#D4C17F"><path d="M53.38 4.62c.19 0 .37-.04.55-.12.38-.17.77-.33 1.16-.48a1.33 1.33 0 0 0 .77-1.72 1.344 1.344 0 0 0-1.72-.78c-.44.17-.87.35-1.3.55-.67.3-.98 1.09-.67 1.76.22.49.7.79 1.21.79ZM53.33 33.53c.74 0 1.33-.59 1.33-1.33v-.23c0-.35.02-.7.07-1.03.09-.74-.42-1.4-1.15-1.5-.75-.1-1.4.42-1.5 1.15-.05.45-.09.91-.09 1.38v.23c.01.74.6 1.33 1.34 1.33ZM46.66 33.86c.74 0 1.33-.6 1.33-1.33v-1.36a1.33 1.33 0 1 0-2.66 0v1.36c0 .73.59 1.33 1.33 1.33ZM54.32 12.77c-.43.24-.85.49-1.26.76-.61.41-.77 1.24-.36 1.85a1.318 1.318 0 0 0 1.85.37c.34-.23.69-.44 1.05-.64.65-.36.88-1.17.53-1.81-.36-.65-1.17-.88-1.81-.53ZM35.41 12.64c.25.4.68.62 1.13.62.24 0 .48-.06.7-.2.63-.4.82-1.22.42-1.84-.25-.4-.51-.79-.78-1.18a1.333 1.333 0 1 0-2.17 1.55c.24.34.47.69.7 1.05ZM59.78 2.82c.06 0 .12-.01.17-.01.41-.06.83-.1 1.25-.13.74-.04 1.29-.68 1.24-1.41-.04-.74-.69-1.29-1.41-1.25-.48.04-.95.08-1.41.14-.73.09-1.25.76-1.16 1.49.09.67.66 1.17 1.32 1.17ZM54.84 24.72c-.5.54-.47 1.38.07 1.88a1.329 1.329 0 0 0 1.89-.07c.27-.3.58-.58.9-.84.58-.46.68-1.3.22-1.87-.46-.58-1.3-.68-1.88-.22-.43.34-.83.72-1.2 1.12ZM42.75 13.06c.22.14.46.2.7.2.45 0 .88-.22 1.13-.62.23-.36.46-.71.7-1.05a1.333 1.333 0 1 0-2.17-1.55c-.27.39-.53.78-.78 1.18-.39.62-.21 1.44.42 1.84ZM53.33 39.97c.74 0 1.33-.6 1.33-1.33v-.67c0-.74-.59-1.33-1.33-1.33-.74 0-1.33.59-1.33 1.33v.67c0 .73.59 1.33 1.33 1.33ZM46.63 27.09a1.35 1.35 0 0 0 1.51-1.15c.05-.41.12-.81.21-1.21a1.33 1.33 0 0 0-1-1.6c-.72-.16-1.43.29-1.6 1.01-.1.48-.19.96-.26 1.45-.1.73.42 1.4 1.14 1.5ZM37.56 17.17c.13.4.25.8.36 1.2.16.6.7.99 1.29.99.11 0 .23-.02.35-.05.16-.05.31-.13.43-.22.13.1.28.18.44.22.12.03.24.05.35.05.59 0 1.13-.39 1.29-.99.11-.4.23-.8.36-1.2a1.33 1.33 0 0 0-.83-1.69c-.64-.22-1.31.1-1.61.69-.29-.59-.96-.91-1.6-.69-.7.24-1.07 1-.83 1.69ZM47.78 8.2c.31 0 .62-.1.88-.32.31-.28.64-.54.97-.8.58-.45.69-1.28.24-1.87-.45-.58-1.29-.69-1.87-.24-.37.29-.74.58-1.09.89-.56.49-.62 1.33-.13 1.89.26.3.63.45 1 .45ZM48.82 17.54c-.3.39-.57.79-.83 1.2-.4.62-.21 1.45.41 1.84.22.14.47.21.71.21.45 0 .88-.22 1.13-.63.22-.35.46-.69.71-1.02.44-.59.32-1.42-.27-1.87-.58-.44-1.42-.32-1.86.27ZM61.3 10.69c-.5.04-.98.09-1.46.17-.73.12-1.22.81-1.1 1.54.11.65.67 1.11 1.32 1.11.07 0 .14 0 .21-.01.41-.07.82-.12 1.23-.15.74-.06 1.29-.7 1.23-1.44a1.32 1.32 0 0 0-1.43-1.22ZM66.23 2.92c.42.06.83.14 1.24.23a1.335 1.335 0 0 0 1.59-1.02c.15-.72-.3-1.43-1.02-1.58-.46-.11-.92-.19-1.39-.27-.73-.12-1.41.38-1.53 1.11-.11.73.38 1.41 1.11 1.53ZM68.51 11.65c-.46-.17-.93-.31-1.4-.44-.71-.18-1.44.24-1.63.95-.19.71.24 1.44.95 1.63.4.11.79.23 1.18.37.15.05.3.08.45.08a1.334 1.334 0 0 0 .45-2.59ZM62.12 21.32c-.74.03-1.3.66-1.27 1.39.04.74.62 1.3 1.4 1.27.41-.02.83-.01 1.24.03.05.01.09.01.14.01.67 0 1.25-.51 1.32-1.2.08-.73-.46-1.39-1.19-1.46-.54-.06-1.1-.07-1.64-.04ZM77.68 8.87c.26.29.62.43.98.43.32 0 .64-.11.9-.35.54-.49.58-1.34.09-1.88-.16-.17-.33-.35-.49-.51-.52-.53-1.36-.54-1.89-.02-.52.51-.53 1.36-.02 1.88.15.15.29.3.43.45ZM57.33 50.64h-16c-.74 0-1.33.59-1.33 1.33 0 .73.59 1.33 1.33 1.33h16c3.74 0 6.67-2.93 6.67-6.66v-2.67c0-.74-.6-1.33-1.34-1.33H17.33c-.74 0-1.33.59-1.33 1.33v2.67c0 3.73 2.92 6.66 6.66 6.66h12v6.67a1.336 1.336 0 0 0 2.67 0v-8c0-.74-.6-1.33-1.33-1.33H22.66c-2.24 0-4-1.76-4-4V45.3h42.67v1.34c0 2.24-1.76 4-4 4ZM70.64 31.4c.01.18.02.38.02.57a1.336 1.336 0 0 0 2.67 0c0-.26-.01-.51-.03-.76-.05-.74-.68-1.29-1.42-1.24-.74.05-1.29.69-1.24 1.43ZM67.83 24.08c-.49.55-.44 1.39.11 1.88.31.27.6.57.86.88.27.32.65.48 1.03.48.3 0 .6-.1.85-.3.57-.48.65-1.32.17-1.88-.34-.42-.73-.82-1.14-1.18-.55-.49-1.4-.44-1.88.12ZM41.33 30.56c0-.74-.6-1.33-1.33-1.33-.74 0-1.34.59-1.34 1.33v1.48c0 .74.6 1.34 1.34 1.34.73 0 1.33-.6 1.33-1.34v-1.48ZM40 36.64c-.74 0-1.34.59-1.34 1.33v.67a1.336 1.336 0 0 0 2.67 0v-.67c0-.74-.6-1.33-1.33-1.33ZM45.33 38.64a1.33 1.33 0 1 0 2.66 0v-.67c0-.74-.59-1.33-1.33-1.33-.74 0-1.33.59-1.33 1.33v.67ZM41.33 23.97c0-.21 0-.42.01-.63.01-.57-.33-1.06-.83-1.26-.05-.02-.11-.02-.16-.04-.1-.03-.2-.07-.31-.07h-.09c-.11 0-.21.04-.31.07-.05.02-.11.02-.16.04-.5.2-.84.69-.83 1.26.01.21.01.42.01.63v.67a1.336 1.336 0 0 0 2.67 0v-.67ZM32 38.64a1.33 1.33 0 1 0 2.66 0v-.67c0-.74-.59-1.33-1.33-1.33-.74 0-1.33.59-1.33 1.33v.67ZM33.33 33.86c.74 0 1.33-.6 1.33-1.33v-1.36a1.33 1.33 0 1 0-2.66 0v1.36c0 .73.59 1.33 1.33 1.33ZM28 38.64v-.67c0-.74-.6-1.33-1.34-1.33-.74 0-1.33.59-1.33 1.33v.67c0 .73.59 1.33 1.33 1.33.74 0 1.34-.6 1.34-1.33ZM9.31 27.02c.25.2.55.3.85.3.38 0 .76-.16 1.03-.48.26-.31.55-.61.86-.88.55-.49.6-1.33.11-1.88a1.32 1.32 0 0 0-1.88-.12c-.41.36-.8.76-1.15 1.18-.47.56-.39 1.4.18 1.88Z"/><path d="M73.33 63.97h-28V57.3a1.336 1.336 0 0 0-2.67 0v8c0 .74.6 1.34 1.34 1.34h28v6.66c0 2.21-1.8 4-4 4H12c-2.21 0-4-1.79-4-4v-6.66h30.77c.74 0 1.34-.6 1.34-1.34 0-.73-.6-1.33-1.34-1.33H6.66c-.74 0-1.33.6-1.33 1.33v8c0 3.68 2.99 6.67 6.67 6.67h56c3.67 0 6.66-2.99 6.66-6.67v-8c0-.73-.59-1.33-1.33-1.33Z"/><path d="M32 70.64v2.66c0 .74.59 1.34 1.33 1.34.74 0 1.33-.6 1.33-1.34v-2.66c0-.74-.59-1.34-1.33-1.34-.74 0-1.33.6-1.33 1.34ZM1.39 25.97h-.05c-.71 0-1.31.57-1.33 1.29-.01.23-.01.47-.01.71a1.33 1.33 0 1 0 2.66 0c0-.21.01-.41.01-.62a1.33 1.33 0 0 0-1.28-1.38ZM7.15 17.41c.3-.29.61-.56.93-.83a1.331 1.331 0 1 0-1.69-2.06c-.38.31-.74.63-1.09.97a1.34 1.34 0 0 0-.04 1.89c.26.27.61.4.96.4.34 0 .67-.12.93-.37ZM3.62 19.6c-.65-.33-1.46-.07-1.79.59-.21.44-.42.88-.6 1.34-.27.68.06 1.46.74 1.73.17.07.33.1.5.1.53 0 1.03-.32 1.24-.84.15-.39.32-.76.51-1.13.33-.66.06-1.46-.6-1.79ZM6.02 5.56c.23 0 .46-.06.67-.18.36-.21.73-.4 1.1-.59.66-.32.93-1.12.61-1.78-.33-.66-1.13-.93-1.79-.61-.42.21-.84.43-1.25.67-.64.37-.86 1.18-.49 1.82.25.43.69.67 1.15.67ZM18.66 70.64v2.66c0 .74.6 1.34 1.34 1.34.73 0 1.33-.6 1.33-1.34v-2.66c0-.74-.6-1.34-1.33-1.34-.74 0-1.34.6-1.34 1.34ZM78.02 23.26c.68-.27 1.01-1.05.74-1.73-.18-.46-.39-.9-.6-1.34a1.33 1.33 0 0 0-1.79-.59c-.66.33-.93 1.13-.6 1.79.19.37.36.74.51 1.13.21.52.71.84 1.24.84.17 0 .33-.03.5-.1ZM79.98 27.26c-.02-.74-.68-1.33-1.38-1.29-.73.03-1.31.64-1.28 1.38 0 .21.01.41.01.62a1.33 1.33 0 1 0 2.66 0c0-.24 0-.48-.01-.71ZM74.63 3.07c-.41-.24-.83-.46-1.25-.67-.66-.32-1.46-.05-1.79.61-.32.66-.05 1.46.61 1.78.37.19.74.38 1.1.59a1.33 1.33 0 0 0 1.82-.49c.37-.64.15-1.45-.49-1.82ZM61.33 73.3v-2.66c0-.74-.6-1.34-1.33-1.34-.74 0-1.34.6-1.34 1.34v2.66c0 .74.6 1.34 1.34 1.34.73 0 1.33-.6 1.33-1.34ZM48 73.3v-2.66c0-.74-.6-1.34-1.34-1.34-.74 0-1.33.6-1.33 1.34v2.66c0 .74.59 1.34 1.33 1.34.74 0 1.34-.6 1.34-1.34ZM73.6 14.52a1.331 1.331 0 1 0-1.69 2.06c.32.27.63.54.93.83.26.25.59.37.93.37.35 0 .69-.13.96-.4.51-.53.49-1.38-.04-1.89-.35-.34-.71-.66-1.09-.97ZM8.11 29.97c-.76-.05-1.37.5-1.42 1.24-.02.25-.03.5-.03.76a1.336 1.336 0 0 0 2.67 0c0-.19.01-.39.02-.57.05-.74-.5-1.38-1.24-1.43ZM26.41 29.44c-.73.1-1.24.76-1.15 1.5.05.33.07.68.07 1.03v.23c0 .74.59 1.33 1.33 1.33.74 0 1.33-.59 1.33-1.33v-.23c0-.47-.02-.93-.08-1.38-.1-.73-.76-1.25-1.5-1.15ZM24.9 4.02c.39.15.78.31 1.16.48.18.08.36.12.55.12.51 0 .99-.3 1.21-.79.31-.67 0-1.46-.67-1.76-.43-.2-.86-.38-1.3-.55-.69-.25-1.46.09-1.72.78-.26.69.08 1.46.77 1.72ZM24.39 15.11c.36.2.71.41 1.05.64a1.318 1.318 0 0 0 1.85-.37c.41-.61.25-1.44-.36-1.85-.41-.27-.83-.52-1.26-.76-.64-.35-1.45-.12-1.81.53-.35.64-.12 1.45.53 1.81ZM1.33 9.3c.36 0 .72-.14.98-.43.14-.15.28-.3.43-.45.51-.52.5-1.37-.03-1.88a1.32 1.32 0 0 0-1.88.02c-.16.16-.33.34-.49.51-.49.54-.45 1.39.09 1.88.26.24.58.35.9.35ZM22.29 25.69c.32.26.63.54.91.84.26.28.62.43.97.43.33 0 .65-.12.91-.36.54-.5.57-1.34.07-1.88-.37-.4-.77-.78-1.2-1.12-.58-.46-1.42-.36-1.88.22-.46.57-.36 1.41.22 1.87ZM29.75 20.16a1.322 1.322 0 0 0 1.84.42c.62-.39.81-1.22.41-1.84-.26-.41-.53-.81-.83-1.2-.44-.59-1.27-.71-1.86-.27a1.34 1.34 0 0 0-.27 1.87c.25.33.49.67.71 1.02ZM30.36 7.08c.34.26.66.52.98.8.25.22.56.32.87.32.37 0 .74-.15 1.01-.45.48-.56.42-1.4-.14-1.89-.35-.31-.72-.6-1.09-.89-.58-.45-1.42-.34-1.87.24-.45.59-.34 1.42.24 1.87ZM12.24 3.18c.09 0 .19-.01.28-.03.41-.09.82-.17 1.24-.23.73-.12 1.22-.8 1.11-1.53-.12-.73-.8-1.23-1.53-1.11-.47.08-.93.16-1.39.27-.72.15-1.17.86-1.01 1.58.13.63.68 1.05 1.3 1.05ZM18.79 2.68c.42.03.84.07 1.25.13.06 0 .11.01.17.01.66 0 1.23-.5 1.32-1.17.09-.73-.43-1.4-1.16-1.49-.46-.06-.93-.1-1.4-.14a1.34 1.34 0 0 0-1.42 1.25c-.05.73.5 1.37 1.24 1.41ZM32.64 23.13c-.72.17-1.17.88-1.01 1.6.1.4.17.8.22 1.21.1.67.67 1.16 1.33 1.16.06 0 .12 0 .18-.01.72-.1 1.24-.77 1.14-1.5-.07-.49-.16-.97-.26-1.45-.17-.72-.88-1.17-1.6-1.01ZM11.93 14.24c.15 0 .3-.03.45-.08.39-.14.78-.26 1.18-.37.71-.19 1.14-.92.95-1.63-.19-.71-.92-1.13-1.63-.95-.47.13-.94.27-1.4.44a1.334 1.334 0 0 0 .45 2.59ZM18.49 13.35c.41.03.82.08 1.23.15.07.01.14.01.22.01.64 0 1.2-.46 1.31-1.11.12-.73-.37-1.42-1.1-1.54-.48-.07-.96-.13-1.46-.17-.72-.07-1.37.49-1.43 1.22-.06.74.49 1.38 1.23 1.44ZM16.36 24.02c.05 0 .1 0 .14-.01.41-.04.83-.05 1.24-.03.77.03 1.36-.53 1.4-1.27a1.33 1.33 0 0 0-1.27-1.39c-.54-.03-1.1-.02-1.64.04-.73.07-1.27.73-1.19 1.46.07.69.65 1.2 1.32 1.2Z"/></g></svg>