<svg width="21.339" height="20" fill="none" xmlns="http://www.w3.org/2000/svg"><defs><clipPath id="a"><path fill="#fff" fill-opacity="0" d="M0 0h21.339v20H0z"/></clipPath></defs><path fill="none" d="M0 0h21.339v20H0z"/><g clip-path="url(#a)"><path d="M16 0h-2.77c-3.11 0-5.12 1.93-5.12 4.92v2.27H5.33c-.24 0-.43.18-.43.4v3.29c0 .23.19.41.43.41h2.78v8.3c0 .22.2.41.44.41h3.63c.24 0 .43-.19.43-.41v-8.3h3.26c.24 0 .43-.18.43-.41V7.59c0-.1-.04-.21-.12-.28a.465.465 0 0 0-.31-.12h-3.26V5.26c0-.92.24-1.39 1.52-1.39H16c.24 0 .43-.18.43-.41V.41c0-.23-.19-.41-.43-.41Z" fill="#FFF"/></g></svg>