<svg width="21.339" height="20" fill="none" xmlns="http://www.w3.org/2000/svg"><defs><clipPath id="a"><path fill="#fff" fill-opacity="0" d="M0 0h21.339v20H0z"/></clipPath></defs><path fill="none" d="M0 0h21.339v20H0z"/><g clip-path="url(#a)" fill="#FFF"><path d="M14.67 0H6.66C2.98 0 0 2.79 0 6.25v7.5C0 17.2 2.98 20 6.66 20h8.01c3.68 0 6.66-2.8 6.66-6.25v-7.5c0-3.46-2.98-6.25-6.66-6.25Zm4.66 13.75c0 2.41-2.09 4.37-4.66 4.37H6.66C4.09 18.12 2 16.16 2 13.75v-7.5c0-2.42 2.09-4.38 4.66-4.38h8.01c2.57 0 4.66 1.96 4.66 4.38v7.5Z"/><path d="M10.66 5c-2.94 0-5.33 2.23-5.33 5 0 2.76 2.39 5 5.33 5 2.95 0 5.34-2.24 5.34-5 0-2.77-2.39-5-5.34-5Zm0 8.12c-1.83 0-3.33-1.4-3.33-3.12 0-1.73 1.5-3.13 3.33-3.13C12.5 6.87 14 8.27 14 10c0 1.72-1.5 3.12-3.34 3.12Z"/><path d="M17.11 4.62c0 .37-.32.67-.71.67-.39 0-.71-.3-.71-.67 0-.37.32-.67.71-.67.39 0 .71.3.71.67Z" fill-rule="evenodd"/></g></svg>