<svg width="37.401" height="20" fill="none" xmlns="http://www.w3.org/2000/svg"><path d="M37.2 18.06c-.05-.09-.09-.17-.13-.23-.65-1.1-1.89-2.44-3.72-4.03l-.04-.04-.02-.02-.02-.02h-.02c-.83-.74-1.35-1.24-1.57-1.49-.41-.49-.5-.98-.28-1.48.16-.38.74-1.18 1.76-2.39.53-.65.95-1.17 1.26-1.55 2.25-2.8 3.22-4.59 2.92-5.37l-.11-.18c-.08-.11-.28-.21-.61-.3-.32-.1-.74-.11-1.24-.05l-5.61.04c-.09-.03-.22-.03-.39.01-.17.03-.25.05-.25.05l-.1.05-.08.05c-.06.04-.13.1-.21.19-.08.09-.15.2-.2.32-.61 1.47-1.3 2.84-2.08 4.11-.48.75-.92 1.41-1.33 1.96-.4.55-.74.96-1.01 1.22-.27.27-.52.47-.74.63-.22.16-.39.23-.5.2-.12-.02-.23-.04-.34-.07a1.24 1.24 0 0 1-.43-.45c-.11-.18-.19-.42-.23-.71-.04-.28-.06-.53-.07-.74 0-.2 0-.5.01-.87.02-.38.02-.64.02-.77 0-.46.01-.96.03-1.51.02-.54.04-.97.05-1.28.01-.32.02-.65.02-1.01 0-.35-.02-.63-.07-.83-.04-.2-.11-.39-.2-.58-.09-.19-.23-.34-.4-.44-.18-.1-.39-.18-.65-.25-.69-.14-1.57-.22-2.63-.23-2.42-.03-3.97.12-4.66.44-.27.13-.52.31-.74.54-.23.27-.26.42-.09.44.78.11 1.33.37 1.65.79l.12.21c.09.16.18.44.27.84.09.41.15.85.18 1.34.06.88.06 1.65 0 2.28-.07.63-.13 1.12-.19 1.48-.06.35-.14.64-.26.85-.12.22-.2.36-.23.41-.04.04-.08.07-.1.09-.17.06-.35.09-.53.09-.18 0-.4-.09-.66-.26s-.53-.4-.81-.7c-.28-.3-.59-.71-.94-1.25s-.72-1.17-1.09-1.9l-.31-.53c-.2-.34-.47-.83-.8-1.49-.34-.65-.64-1.28-.9-1.88-.1-.26-.26-.45-.47-.59l-.09-.05c-.07-.05-.17-.1-.31-.16-.15-.05-.3-.09-.45-.12L1.24.91c-.54 0-.91.12-1.11.35l-.08.11c-.04.06-.05.15-.05.29 0 .13.03.3.11.49a60.98 60.98 0 0 0 2.54 4.97c.92 1.59 1.71 2.87 2.39 3.85.67.97 1.36 1.89 2.06 2.75.7.87 1.17 1.42 1.39 1.66.23.25.41.43.54.55l.49.44c.31.29.77.64 1.37 1.05.6.41 1.27.81 2.01 1.2.73.4 1.58.72 2.56.97.97.25 1.92.35 2.84.3h2.24c.45-.04.8-.17 1.03-.4l.08-.09c.05-.07.1-.19.14-.34.05-.15.07-.32.07-.5-.01-.52.03-1 .13-1.42.1-.42.21-.73.33-.94.12-.22.26-.4.42-.54.15-.15.27-.24.33-.27.07-.03.12-.05.16-.06.31-.1.67 0 1.1.28.42.29.81.64 1.18 1.06.37.42.82.89 1.34 1.41.52.53.97.92 1.36 1.17l.39.22c.26.15.6.28 1.01.4.42.13.78.16 1.09.09l4.99-.07c.49 0 .88-.07 1.15-.23.27-.15.43-.32.48-.5.06-.18.06-.39.01-.62-.04-.23-.09-.39-.13-.48Z" fill="#FFF"/></svg>