<svg width="14.708" height="21" fill="none" xmlns="http://www.w3.org/2000/svg"><path d="M7.42 4.6c-1.48 0-2.69 1.2-2.69 2.68 0 1.48 1.21 2.69 2.69 2.69s2.68-1.21 2.68-2.69S8.9 4.6 7.42 4.6Zm0 4.6a1.92 1.92 0 0 1 0-3.84c1.05 0 1.92.86 1.92 1.92S8.47 9.2 7.42 9.2Z" fill="#FFF"/><path d="M12.55 2.15A7.307 7.307 0 0 0 7.35 0c-1.96 0-3.81.76-5.2 2.15-2.57 2.57-2.89 7.41-.69 10.34L7.35 21l5.88-8.5c2.21-2.94 1.89-7.78-.68-10.35Zm.06 9.9-5.26 7.6-5.27-7.61C.09 9.38.37 5.01 2.69 2.69A6.576 6.576 0 0 1 7.35.76c1.76 0 3.41.69 4.66 1.93 2.32 2.32 2.6 6.69.6 9.36Z" fill="#FFF"/></svg>