<svg width="40" height="40" fill="none" xmlns="http://www.w3.org/2000/svg"><defs><clipPath id="a"><path fill="#fff" fill-opacity="0" d="M0 0h40v40H0z"/></clipPath></defs><path fill="none" d="M0 0h40v40H0z"/><g clip-path="url(#a)" fill="#D4C17F"><path d="M19.96 0C13.48 0 8.2 5.27 8.2 11.76v16.47C8.2 34.72 13.48 40 19.96 40c6.49 0 11.77-5.28 11.77-11.77V11.76C31.73 5.27 26.45 0 19.96 0Zm9.37 28.23c0 5.16-4.2 9.37-9.37 9.37-5.16 0-9.36-4.21-9.36-9.37V11.76c0-5.16 4.2-9.37 9.36-9.37 5.17 0 9.37 4.21 9.37 9.37v16.47Z"/><path d="M19.96 7.95c-.66 0-1.2.54-1.2 1.2v5.53c0 .66.54 1.2 1.2 1.2.67 0 1.2-.54 1.2-1.2V9.15c0-.66-.53-1.2-1.2-1.2Z"/></g></svg>