<svg width="21" height="21" fill="none" xmlns="http://www.w3.org/2000/svg"><path d="M20.98 17.28a1.6 1.6 0 0 0-.8-1.19L15 13.1c-.63-.36-1.44-.26-1.96.26l-1.02 1.02c-.27.27-.7.3-1 .06a30.8 30.8 0 0 1-4.47-4.47.75.75 0 0 1 .06-1l1.02-1.02c.52-.52.62-1.33.26-1.96L4.9.81a1.6 1.6 0 0 0-1.19-.8c-.5-.07-1 .1-1.36.46L.81 2.01C-.26 3.08-.28 5.04.76 7.54c1.01 2.39 2.88 5.03 5.27 7.42 2.39 2.39 5.03 4.26 7.42 5.27 1.23.51 2.33.77 3.26.77.95 0 1.73-.28 2.27-.82l1.54-1.54c.36-.36.53-.86.46-1.36Zm-6.32-3.59 5.18 2.99c.26.14.43.4.47.69.03.24-.04.49-.18.68l-6.89-3.93.28-.28c.31-.3.77-.36 1.14-.15ZM3.62.68c.29.04.55.21.69.47L7.3 6.33c.21.37.15.83-.15 1.14l-.26.25L2.94.86c.16-.12.35-.18.56-.18h.12ZM18.5 19.7c-.85.85-2.6.81-4.78-.1-2.32-.97-4.88-2.79-7.21-5.12S2.36 9.59 1.39 7.27c-.91-2.18-.95-3.93-.1-4.78l1.15-1.14 3.95 6.87-.26.27c-.52.51-.57 1.33-.11 1.9.66.83 1.39 1.64 2.17 2.41.77.78 1.58 1.51 2.41 2.17.57.46 1.39.41 1.9-.11l.25-.24 6.89 3.94-1.14 1.14Z" fill="#FFF"/></svg>